<svg width="36" height="36" viewBox="0 0 36 36" fill="none" xmlns="http://www.w3.org/2000/svg">
  <rect width="36" height="36" rx="8" fill="#4241EB"/>
  <path d="M18 10C14.134 10 11 13.134 11 17V19C11 22.866 14.134 26 18 26C21.866 26 25 22.866 25 19V17C25 13.134 21.866 10 18 10ZM23 19C23 21.761 20.761 24 18 24C15.239 24 13 21.761 13 19V17C13 14.239 15.239 12 18 12C20.761 12 23 14.239 23 17V19Z" fill="white"/>
  <path d="M18 15C16.895 15 16 15.895 16 17V19C16 20.105 16.895 21 18 21C19.105 21 20 20.105 20 19V17C20 15.895 19.105 15 18 15ZM18 19C17.999 19 17.998 19 17.997 19C17.999 19 18 19 18 19Z" fill="white"/>
</svg>